# xmcd
#
# Track frame offsets:
#	150
#	21144
#	37845
#	56335
#	74875
#	93277
#	115290
#	132512
#	150260
#	167492
#
# Disc length: 2448 seconds
#
# Revision: 2
# Processed by: cddbd v1.5.2PL0 Copyright (c) Steve Scherf et al.
# Submitted via: EasyCDDAExtractor 2010.6.0.0
#
DISCID=7a098e0a
DTITLE=유리상자 - 1집
DYEAR=1997
DGENRE=Pop
TTITLE0=가시나무
TTITLE1=독백
TTITLE2=나를 찾아서
TTITLE3=오래 기뻐하고 오래 행복하고
TTITLE4=문제아
TTITLE5=순애보
TTITLE6=유리구두
TTITLE7=주어진 시간 끝에서
TTITLE8=지구가 섰다
TTITLE9=나처럼
EXTD=
EXTT0=
EXTT1=
EXTT2=
EXTT3=
EXTT4=
EXTT5=
EXTT6=
EXTT7=
EXTT8=
EXTT9=
PLAYORDER=
